Hanif_Medium_5_0_grf.mot
version=1
nRows=36
nColumns=19
inDegrees=yes
endheader
time	right_ground_force_vx	right_ground_force_vy	right_ground_force_vz	right_ground_force_px	right_ground_force_py	right_ground_force_pz	right_ground_torque_x	right_ground_torque_y	right_ground_torque_z	left_ground_force_vx	left_ground_force_vy	left_ground_force_vz	left_ground_force_px	left_ground_force_py	left_ground_force_pz	left_ground_torque_x	left_ground_torque_y	left_ground_torque_z
4.425000	-3.666540	323.409000	56.648900	0.227779	0.000000	-1.425800	-25.959200	0.195061	9.345380	-2.479710	272.927000	-51.726800	0.237474	0.000000	-0.983837	22.118500	-4.006500	11.392300
4.430000	-3.565050	317.706000	56.843500	0.228204	0.000000	-1.424540	-25.902800	0.170667	9.330070	-2.677370	266.807000	-51.442000	0.237801	0.000000	-0.984591	21.829700	-3.866310	11.248000
4.435000	-4.388840	315.738000	57.042700	0.228411	0.000000	-1.423910	-25.944600	-0.035491	9.321880	-2.838140	263.778000	-50.894400	0.238032	0.000000	-0.985053	21.707500	-3.739090	11.171800
4.440000	-3.973190	313.385000	57.334500	0.228986	0.000000	-1.424000	-25.722200	-0.094937	9.430100	-2.514730	258.027000	-50.291600	0.238676	0.000000	-0.985468	21.335300	-3.631810	11.106900
4.445000	-4.251300	310.796000	57.486000	0.229488	0.000000	-1.423570	-25.644700	-0.241960	9.498290	-3.197850	254.752000	-49.878800	0.239186	0.000000	-0.985163	21.003100	-3.505850	11.103100
4.450000	-4.838170	309.827000	57.682400	0.230796	0.000000	-1.423400	-25.620100	-0.369037	9.877920	-3.090350	251.204000	-49.839400	0.240456	0.000000	-0.986067	20.936800	-3.423640	11.293000
4.455000	-5.015530	304.484000	57.736800	0.231283	0.000000	-1.422000	-25.605200	-0.508497	9.851200	-3.621120	248.265000	-49.403200	0.240462	0.000000	-0.986871	20.903100	-3.247510	11.149900
4.460000	-5.145050	303.627000	58.015800	0.232848	0.000000	-1.422450	-25.399100	-0.530081	10.318600	-3.484330	245.832000	-48.833300	0.240652	0.000000	-0.986942	20.712800	-3.166810	11.075200
4.465000	-5.463900	299.675000	57.501900	0.234032	0.000000	-1.422260	-25.127000	-0.601164	10.546400	-3.557430	241.930000	-48.193500	0.241162	0.000000	-0.986751	20.340100	-3.039850	11.018400
4.470000	-5.383680	298.541000	57.008400	0.234109	0.000000	-1.421270	-25.325200	-0.773678	10.493600	-3.382220	238.759000	-48.623100	0.241770	0.000000	-0.987036	20.139500	-2.983230	11.052000
4.475000	-5.303590	294.463000	56.669300	0.235715	0.000000	-1.421510	-24.909100	-0.762675	10.845800	-3.558070	235.571000	-48.401300	0.242083	0.000000	-0.986988	19.864500	-2.908780	10.991200
4.480000	-5.896130	292.865000	56.621000	0.236340	0.000000	-1.420950	-24.941100	-0.943082	10.955100	-3.320190	233.253000	-48.290200	0.241984	0.000000	-0.986122	19.460700	-2.768610	10.843000
4.485000	-6.491050	288.904000	56.050700	0.236783	0.000000	-1.419940	-24.900700	-0.934103	10.954000	-3.623350	231.156000	-48.460000	0.242020	0.000000	-0.987029	19.502300	-2.668760	10.763400
4.490000	-7.437740	287.556000	55.577200	0.236993	0.000000	-1.419060	-25.044300	-0.939646	10.978400	-3.684690	227.851000	-48.313100	0.241583	0.000000	-0.986907	19.197300	-2.561490	10.509500
4.495000	-7.171510	284.479000	55.694300	0.237280	0.000000	-1.419850	-24.545600	-1.155200	10.906500	-3.724840	225.375000	-48.854000	0.241683	0.000000	-0.987622	19.151400	-2.473150	10.440100
4.500000	-6.896150	282.012000	55.539400	0.238689	0.000000	-1.419090	-24.549100	-1.163970	11.222600	-3.625730	222.810000	-48.614100	0.242163	0.000000	-0.987519	18.908900	-2.392860	10.430500
4.505000	-6.499090	280.290000	56.282700	0.238784	0.000000	-1.419330	-24.329400	-1.120910	11.197000	-3.287990	220.988000	-48.265900	0.242255	0.000000	-0.987061	18.645600	-2.328570	10.352200
4.510000	-5.638610	279.778000	56.745800	0.239011	0.000000	-1.419440	-24.248500	-1.199420	11.219200	-3.225560	216.822000	-48.298400	0.242411	0.000000	-0.987312	18.348400	-2.233500	10.210000
4.515000	-5.329050	279.504000	56.950900	0.239310	0.000000	-1.418960	-24.358200	-1.175640	11.298400	-3.365190	215.115000	-48.080200	0.242783	0.000000	-0.988310	18.422300	-2.186430	10.215800
4.520000	-4.884480	278.753000	57.507900	0.239481	0.000000	-1.418390	-24.449100	-1.187910	11.316900	-3.546840	214.007000	-48.221700	0.243067	0.000000	-0.988535	18.378900	-2.075510	10.220600
4.525000	-3.909590	277.011000	57.485200	0.240065	0.000000	-1.418830	-24.166600	-1.277900	11.381900	-3.657010	209.988000	-47.915100	0.243744	0.000000	-0.988293	17.986200	-1.941680	10.178200
4.530000	-3.101120	278.832000	57.798800	0.239935	0.000000	-1.418510	-24.411300	-1.159100	11.429700	-3.530140	209.133000	-47.706500	0.243915	0.000000	-0.988607	17.976200	-1.923500	10.169800
4.535000	-2.300570	278.792000	57.438300	0.240508	0.000000	-1.417860	-24.583200	-1.093980	11.589200	-3.651130	210.103000	-47.851800	0.244755	0.000000	-0.988162	17.967100	-1.827240	10.377900
4.540000	-1.831790	277.541000	57.521400	0.240448	0.000000	-1.418210	-24.374000	-1.147340	11.503800	-4.390640	209.855000	-48.338900	0.244631	0.000000	-0.987803	17.885600	-1.733430	10.348000
4.545000	-1.928170	276.669000	57.127600	0.240158	0.000000	-1.417950	-24.370400	-1.090050	11.394200	-4.128910	208.748000	-48.094700	0.245664	0.000000	-0.989281	18.093100	-1.597480	10.488500
4.550000	-1.648710	273.809000	56.870700	0.241359	0.000000	-1.416820	-24.427200	-1.109220	11.613000	-3.964920	208.878000	-48.318900	0.245719	0.000000	-0.988264	17.885500	-1.435270	10.470900
4.555000	-1.956940	272.679000	56.363000	0.241012	0.000000	-1.417020	-24.272600	-1.198680	11.449100	-4.893600	206.190000	-48.439500	0.245692	0.000000	-0.989701	17.972200	-1.379670	10.364900
4.560000	-1.668830	268.976000	56.082600	0.241872	0.000000	-1.416830	-23.991600	-1.293020	11.513500	-4.849490	207.293000	-48.770900	0.246298	0.000000	-0.988181	17.750000	-1.288290	10.528800
4.565000	-2.149760	266.276000	55.573800	0.241911	0.000000	-1.416770	-23.769600	-1.304930	11.413600	-4.994160	205.424000	-48.879800	0.247102	0.000000	-0.989526	17.868900	-1.152700	10.600900
4.570000	-2.010270	260.927000	55.145500	0.242939	0.000000	-1.416420	-23.382200	-1.375020	11.451800	-4.744060	205.165000	-49.348800	0.245945	0.000000	-0.989055	17.741500	-1.046890	10.321600
4.575000	-2.451030	257.599000	54.843100	0.242517	0.000000	-1.416610	-23.036100	-1.498310	11.176500	-5.042030	203.598000	-49.153600	0.246066	0.000000	-0.988425	17.485100	-1.046630	10.282300
4.580000	-3.036130	255.638000	54.768500	0.243086	0.000000	-1.417150	-22.726800	-1.554130	11.244800	-5.381990	201.433000	-48.368300	0.246400	0.000000	-0.988336	17.285700	-0.900673	10.211900
4.585000	-3.265060	254.179000	54.784300	0.243524	0.000000	-1.417890	-22.408300	-1.642720	11.284700	-5.117410	198.385000	-47.732200	0.247214	0.000000	-0.988449	17.045600	-0.938802	10.240000
4.590000	-3.024960	251.103000	54.405100	0.243864	0.000000	-1.417010	-22.356800	-1.638470	11.234900	-5.164170	197.391000	-47.740500	0.246095	0.000000	-0.987880	16.845100	-0.823620	9.936240
4.595000	-3.200390	247.520000	54.555500	0.242930	0.000000	-1.417470	-21.926600	-1.650880	10.840700	-5.130810	194.816000	-47.100300	0.247613	0.000000	-0.990312	17.100000	-0.731081	10.103000
4.600000	-2.960100	242.589000	54.459700	0.244055	0.000000	-1.417480	-21.486800	-1.692140	10.904900	-5.237580	193.287000	-47.105500	0.246742	0.000000	-0.987255	16.375000	-0.663928	9.840630
